<?xml version="1.0" standalone="no"?>
<!DOCTYPE svg PUBLIC "-//W3C//DTD SVG 1.1//EN" "http://www.w3.org/Graphics/SVG/1.1/DTD/svg11.dtd" >
<svg xmlns="http://www.w3.org/2000/svg">
<metadata>
<json>
<![CDATA[
{
	"fontFamily": "Font-SPRINTIA",
	"majorVersion": 1,
	"minorVersion": 0,
	"version": "Version 1.0",
	"fontId": "Font-SPRINTIA",
	"psName": "Font-SPRINTIA",
	"subFamily": "Regular",
	"fullName": "Font-SPRINTIA",
	"description": "Font generated by IcoMoon."
}
]]>
</json>
</metadata>
<defs>
<font id="Font-SPRINTIA" horiz-adv-x="1024">
<font-face units-per-em="1024" ascent="960" descent="-64" />
<missing-glyph horiz-adv-x="1024" />
<glyph unicode="&#x20;" horiz-adv-x="512" d="" />
<glyph unicode="&#xe900;" glyph-name="icon_1RM" data-tags="icon_1RM" d="M881.067 560l-59.733 59.733 32 33.067-136.533 136.533-33.067-32-60.8 60.8 32 33.067q24.533 24.533 60.8 24t60.8-25.067l137.6-137.6q24.533-24.533 24.533-60.267t-24.533-60.267l-33.067-32zM369.067 46.933q-24.533-24.533-60.267-24.533t-60.267 24.533l-137.6 137.6q-24.533 24.533-24.533 60.267t24.533 60.267l32 32 60.8-60.8-33.067-32 137.6-137.6 32 33.067 60.8-60.8-32-32zM792.533 405.333l60.8 60.8-323.2 323.2-60.8-60.8 323.2-323.2zM493.867 106.667l60.8 61.867-322.133 322.133-61.867-60.8 323.2-323.2zM487.467 356.267l117.333 116.267-68.267 68.267-116.267-117.333 67.2-67.2zM554.667 46.933q-24.533-24.533-60.8-24.533t-60.8 24.533l-322.133 322.133q-24.533 24.533-24.533 60.8t24.533 60.8l60.8 60.8q24.533 24.533 60.267 24.533t60.267-24.533l67.2-67.2 117.333 117.333-67.2 66.133q-24.533 24.533-24.533 60.8t24.533 60.8l60.8 60.8q24.533 24.533 60.267 24.533t60.267-24.533l323.2-323.2q24.533-24.533 24.533-60.267t-24.533-60.267l-60.8-60.8q-24.533-24.533-60.8-24.533t-60.8 24.533l-66.133 67.2-117.333-117.333 67.2-67.2q24.533-24.533 24.533-60.267t-24.533-60.267l-60.8-60.8z" />
<glyph unicode="&#xe901;" glyph-name="icon_a_propos" data-tags="icon_a_propos" d="M512 234.667q18.133 0 30.4 12.267t12.267 30.4v170.667q0 18.133-12.267 30.4t-30.4 12.267-30.4-12.267-12.267-30.4v-170.667q0-18.133 12.267-30.4t30.4-12.267zM512 576q18.133 0 30.4 12.267t12.267 30.4-12.267 30.4-30.4 12.267-30.4-12.267-12.267-30.4 12.267-30.4 30.4-12.267zM512 21.333q-88.533 0-166.4 33.6t-135.467 91.2-91.2 135.467-33.6 166.4 33.6 166.4 91.2 135.467 135.467 91.2 166.4 33.6 166.4-33.6 135.467-91.2 91.2-135.467 33.6-166.4-33.6-166.4-91.2-135.467-135.467-91.2-166.4-33.6zM512 106.667q142.933 0 242.133 99.2t99.2 242.133-99.2 242.133-242.133 99.2-242.133-99.2-99.2-242.133 99.2-242.133 242.133-99.2z" />
<glyph unicode="&#xe902;" glyph-name="icon_add" data-tags="icon_add" d="M469.333 405.333h-213.333q-18.133 0-30.4 12.267t-12.267 30.4 12.267 30.4 30.4 12.267h213.333v213.333q0 18.133 12.267 30.4t30.4 12.267 30.4-12.267 12.267-30.4v-213.333h213.333q18.133 0 30.4-12.267t12.267-30.4-12.267-30.4-30.4-12.267h-213.333v-213.333q0-18.133-12.267-30.4t-30.4-12.267-30.4 12.267-12.267 30.4v213.333z" />
<glyph unicode="&#xe903;" glyph-name="icon_agenda" data-tags="icon_agenda" d="M213.333 21.333q-35.2 0-60.267 25.067t-25.067 60.267v597.333q0 35.2 25.067 60.267t60.267 25.067h42.667v42.667q0 18.133 12.267 30.4t30.4 12.267 30.4-12.267 12.267-30.4v-42.667h341.333v42.667q0 18.133 12.267 30.4t30.4 12.267 30.4-12.267 12.267-30.4v-42.667h42.667q35.2 0 60.267-25.067t25.067-60.267v-597.333q0-35.2-25.067-60.267t-60.267-25.067h-597.333zM213.333 106.667h597.333v426.667h-597.333v-426.667zM213.333 618.667h597.333v85.333h-597.333v-85.333zM213.333 618.667v0zM512 362.667q-18.133 0-30.4 12.267t-12.267 30.4 12.267 30.4 30.4 12.267 30.4-12.267 12.267-30.4-12.267-30.4-30.4-12.267zM310.933 374.933q-12.267 12.267-12.267 30.4t12.267 30.4 30.4 12.267 30.4-12.267 12.267-30.4-12.267-30.4-30.4-12.267-30.4 12.267zM682.667 362.667q-18.133 0-30.4 12.267t-12.267 30.4 12.267 30.4 30.4 12.267 30.4-12.267 12.267-30.4-12.267-30.4-30.4-12.267zM512 192q-18.133 0-30.4 12.267t-12.267 30.4 12.267 30.4 30.4 12.267 30.4-12.267 12.267-30.4-12.267-30.4-30.4-12.267zM310.933 204.267q-12.267 12.267-12.267 30.4t12.267 30.4 30.4 12.267 30.4-12.267 12.267-30.4-12.267-30.4-30.4-12.267-30.4 12.267zM682.667 192q-18.133 0-30.4 12.267t-12.267 30.4 12.267 30.4 30.4 12.267 30.4-12.267 12.267-30.4-12.267-30.4-30.4-12.267z" />
<glyph unicode="&#xe904;" glyph-name="icon_analyse_athlete" data-tags="icon_analyse_athlete" d="M462.933 373.333l4.267-34.133q1.067-8.533 6.933-13.867t14.4-5.333h46.933q8.533 0 14.4 5.333t6.933 13.867l4.267 34.133q8.533 3.2 15.467 7.467t12.267 9.6l32-13.867q7.467-3.2 14.933-1.067t11.733 9.6l23.467 40.533q4.267 7.467 2.667 14.933t-8 12.8l-27.733 20.267q2.133 8.533 2.133 17.067t-2.133 17.067l27.733 20.267q6.4 5.333 8 12.8t-2.667 14.933l-23.467 40.533q-4.267 7.467-11.733 9.6t-14.933-1.067l-32-13.867q-5.333 5.333-12.267 9.6t-15.467 7.467l-4.267 34.133q-1.067 8.533-6.933 13.867t-14.4 5.333h-46.933q-8.533 0-14.4-5.333t-6.933-13.867l-4.267-34.133q-8.533-3.2-15.467-7.467t-12.267-9.6l-32 13.867q-7.467 3.2-14.933 1.067t-11.733-9.6l-23.467-40.533q-4.267-7.467-2.667-14.933t8-12.8l27.733-20.267q-2.133-8.533-2.133-17.067t2.133-17.067l-27.733-20.267q-6.4-5.333-8-12.8t2.667-14.933l23.467-40.533q4.267-7.467 11.733-9.6t14.933 1.067l32 13.867q5.333-5.333 12.267-9.6t15.467-7.467zM466.667 445.333q-18.667 18.667-18.667 45.333t18.667 45.333 45.333 18.667 45.333-18.667 18.667-45.333-18.667-45.333-45.333-18.667-45.333 18.667zM256 204.8q-60.8 55.467-94.4 129.6t-33.6 156.267q0 160 112 272t272 112q133.333 0 236.267-78.4t133.867-204.267l55.467-218.667q5.333-20.267-7.467-36.8t-34.133-16.533h-85.333v-128q0-35.2-25.067-60.267t-60.267-25.067h-85.333v-42.667q0-18.133-12.267-30.4t-30.4-12.267-30.4 12.267-12.267 30.4v85.333q0 18.133 12.267 30.4t30.4 12.267h128v170.667q0 18.133 12.267 30.4t30.4 12.267h72.533l-40.533 165.333q-24.533 97.067-104.533 157.867t-183.467 60.8q-123.733 0-211.2-86.4t-87.467-210.133q0-64 26.133-121.6t74.133-102.4l27.733-25.6v-179.2q0-18.133-12.267-30.4t-30.4-12.267-30.4 12.267-12.267 30.4v140.8z" />
<glyph unicode="&#xe905;" glyph-name="icon_archiver" data-tags="icon_archiver" d="M481.6 521.067q-12.267-12.267-12.267-30.4v-136.533l-38.4 38.4q-11.733 11.733-29.867 11.733t-29.867-11.733-11.733-29.867 11.733-29.867l110.933-110.933q12.8-12.8 29.867-12.8t29.867 12.8l110.933 110.933q11.733 11.733 11.733 29.867t-11.733 29.867-29.867 11.733-29.867-11.733l-38.4-38.4v136.533q0 18.133-12.267 30.4t-30.4 12.267-30.4-12.267zM213.333 618.667v-469.333h597.333v469.333h-597.333zM213.333 64q-35.2 0-60.267 25.067t-25.067 60.267v532.267q0 14.933 4.8 28.8t14.4 25.6l53.333 65.067q11.733 14.933 29.333 22.933t36.8 8h490.667q19.2 0 36.8-8t29.333-22.933l53.333-65.067q9.6-11.733 14.4-25.6t4.8-28.8v-532.267q0-35.2-25.067-60.267t-60.267-25.067h-597.333zM230.4 704h563.2l-36.267 42.667h-490.667l-36.267-42.667z" />
<glyph unicode="&#xe906;" glyph-name="icon_center_carte" data-tags="icon_center_carte" d="M469.333 23.467v42.667q-133.333 14.933-228.8 110.4t-110.4 228.8h-42.667q-18.133 0-30.4 12.267t-12.267 30.4 12.267 30.4 30.4 12.267h42.667q14.933 133.333 110.4 228.8t228.8 110.4v42.667q0 18.133 12.267 30.4t30.4 12.267 30.4-12.267 12.267-30.4v-42.667q133.333-14.933 228.8-110.4t110.4-228.8h42.667q18.133 0 30.4-12.267t12.267-30.4-12.267-30.4-30.4-12.267h-42.667q-14.933-133.333-110.4-228.8t-228.8-110.4v-42.667q0-18.133-12.267-30.4t-30.4-12.267-30.4 12.267-12.267 30.4zM723.2 236.8q87.467 87.467 87.467 211.2t-87.467 211.2-211.2 87.467-211.2-87.467-87.467-211.2 87.467-211.2 211.2-87.467 211.2 87.467zM391.467 327.467q-50.133 50.133-50.133 120.533t50.133 120.533 120.533 50.133 120.533-50.133 50.133-120.533-50.133-120.533-120.533-50.133-120.533 50.133zM572.267 387.733q25.067 25.067 25.067 60.267t-25.067 60.267-60.267 25.067-60.267-25.067-25.067-60.267 25.067-60.267 60.267-25.067 60.267 25.067z" />
<glyph unicode="&#xe907;" glyph-name="icon_charge_entrainement" data-tags="icon_charge_entrainement" d="M170.667 64q-18.133 0-30.4 12.267t-12.267 30.4v42.667q0 18.133 12.267 30.4t30.4 12.267 30.4-12.267 12.267-30.4v-42.667q0-18.133-12.267-30.4t-30.4-12.267zM341.333 64q-18.133 0-30.4 12.267t-12.267 30.4v234.667q0 18.133 12.267 30.4t30.4 12.267 30.4-12.267 12.267-30.4v-234.667q0-18.133-12.267-30.4t-30.4-12.267zM512 64q-18.133 0-30.4 12.267t-12.267 30.4v149.333q0 18.133 12.267 30.4t30.4 12.267 30.4-12.267 12.267-30.4v-149.333q0-18.133-12.267-30.4t-30.4-12.267zM682.667 64q-18.133 0-30.4 12.267t-12.267 30.4v213.333q0 18.133 12.267 30.4t30.4 12.267 30.4-12.267 12.267-30.4v-213.333q0-18.133-12.267-30.4t-30.4-12.267zM853.333 64q-18.133 0-30.4 12.267t-12.267 30.4v384q0 18.133 12.267 30.4t30.4 12.267 30.4-12.267 12.267-30.4v-384q0-18.133-12.267-30.4t-30.4-12.267zM597.333 449.067q-17.067 0-32.533 6.4t-28.267 18.133l-109.867 109.867-226.133-226.133q-12.8-12.8-30.4-12.267t-30.4 13.333q-11.733 12.8-11.2 30.4t12.267 29.333l225.067 225.067q12.8 12.8 28.267 18.667t32.533 5.867 33.067-5.867 27.733-18.667l109.867-109.867 226.133 226.133q12.8 12.8 30.4 12.267t30.4-13.333q11.733-12.8 11.2-30.4t-12.267-29.333l-225.067-225.067q-11.733-11.733-27.733-18.133t-33.067-6.4z" />
<glyph unicode="&#xe908;" glyph-name="icon_coach" data-tags="icon_coach" d="M469.333 149.333q-106.667 0-181.333 74.667t-74.667 181.333q0 11.733 1.067 23.467t3.2 23.467q-5.333-2.133-12.8-3.2t-12.8-1.067q-44.8 0-75.733 30.933t-30.933 75.733 29.333 75.733 74.133 30.933q35.2 0 63.467-19.733t40-50.667q35.2 32 80.533 51.2t96.533 19.2h426.667q18.133 0 30.4-12.267t12.267-30.4v-85.333q0-18.133-12.267-30.4t-30.4-12.267h-170.667v-85.333q0-106.667-74.667-181.333t-181.333-74.667zM192 512q18.133 0 30.4 12.267t12.267 30.4-12.267 30.4-30.4 12.267-30.4-12.267-12.267-30.4 12.267-30.4 30.4-12.267zM469.333 256q61.867 0 105.6 43.733t43.733 105.6-43.733 105.6-105.6 43.733-105.6-43.733-43.733-105.6 43.733-105.6 105.6-43.733zM469.333 320q35.2 0 60.267 25.067t25.067 60.267-25.067 60.267-60.267 25.067-60.267-25.067-25.067-60.267 25.067-60.267 60.267-25.067z" />
<glyph unicode="&#xe909;" glyph-name="icon_confidentialite" data-tags="icon_confidentialite" d="M512 110.933q103.467 32 172.8 126.4t81.067 210.667h-253.867v336l-256-96v-220.8q0-7.467 2.133-19.2h253.867v-337.067zM498.133 26.667q-6.4 1.067-12.8 3.2-144 48-229.333 177.6t-85.333 278.933v201.6q0 26.667 15.467 48t40 30.933l256 96q14.933 5.333 29.867 5.333t29.867-5.333l256-96q24.533-9.6 40-30.933t15.467-48v-201.6q0-149.333-85.333-278.933t-229.333-177.6q-6.4-2.133-12.8-3.2t-13.867-1.067-13.867 1.067z" />
<glyph unicode="&#xe90a;" glyph-name="icon_copy" data-tags="icon_copy" d="M384 192q-35.2 0-60.267 25.067t-25.067 60.267v512q0 35.2 25.067 60.267t60.267 25.067h384q35.2 0 60.267-25.067t25.067-60.267v-512q0-35.2-25.067-60.267t-60.267-25.067h-384zM384 277.333h384v512h-384v-512zM213.333 21.333q-35.2 0-60.267 25.067t-25.067 60.267v554.667q0 18.133 12.267 30.4t30.4 12.267 30.4-12.267 12.267-30.4v-554.667h426.667q18.133 0 30.4-12.267t12.267-30.4-12.267-30.4-30.4-12.267h-426.667zM384 277.333v0z" />
<glyph unicode="&#xe90b;" glyph-name="icon_entrainement" data-tags="icon_entrainement" d="M570.667 10.667v222.933l-115.2 105.6-38.4-169.6q-3.2-12.8-13.867-19.733t-23.467-4.8l-221.867 45.867q-11.733 2.133-19.2 12.8t-5.333 23.467 13.333 19.2 22.933 4.267l182.4-36.267 77.867 393.6-106.667-50.133v-110.933q0-13.867-9.067-22.933t-22.933-9.067-22.933 9.067-9.067 22.933v133.333q0 9.6 5.333 17.6t13.867 12.267l155.733 65.067q34.133 14.933 48.533 18.667t29.333 3.733q21.333 0 37.867-9.067t28.267-27.2l44.8-71.467q24.533-39.467 64-69.867t91.733-38.933q13.867-2.133 22.933-11.2t9.067-22.933q0-12.8-9.067-22.4t-21.867-7.467q-60.8 6.4-109.333 38.933t-91.2 91.2l-41.6-168.533 86.4-80q5.333-5.333 8-11.2t2.667-12.267v-264.533q0-13.867-9.067-22.933t-22.933-9.067-22.933 9.067-9.067 22.933zM521.067 763.2q-22.933 22.933-22.933 54.933t22.933 54.933 54.933 22.933 54.933-22.933 22.933-54.933-22.933-54.933-54.933-22.933-54.933 22.933z" />
<glyph unicode="&#xe90c;" glyph-name="icon_fermer" data-tags="icon_fermer" d="M512 388.267l-209.067-209.067q-11.733-11.733-29.867-11.733t-29.867 11.733-11.733 29.867 11.733 29.867l209.067 209.067-209.067 209.067q-11.733 11.733-11.733 29.867t11.733 29.867 29.867 11.733 29.867-11.733l209.067-209.067 209.067 209.067q11.733 11.733 29.867 11.733t29.867-11.733 11.733-29.867-11.733-29.867l-209.067-209.067 209.067-209.067q11.733-11.733 11.733-29.867t-11.733-29.867-29.867-11.733-29.867 11.733l-209.067 209.067z" />
<glyph unicode="&#xe90d;" glyph-name="icon_file" data-tags="icon_file" d="M469.333 327.467v-135.467q0-18.133 12.267-30.4t30.4-12.267 30.4 12.267 12.267 30.4v135.467l38.4-38.4q6.4-6.4 14.4-9.6t16-2.667 15.467 3.733 13.867 9.6q11.733 12.8 12.267 29.867t-12.267 29.867l-110.933 110.933q-6.4 6.4-13.867 9.067t-16 2.667-16-2.667-13.867-9.067l-110.933-110.933q-12.8-12.8-12.267-29.867t13.333-29.867q12.8-11.733 29.867-12.267t29.867 12.267l37.333 37.333zM256 21.333q-35.2 0-60.267 25.067t-25.067 60.267v682.667q0 35.2 25.067 60.267t60.267 25.067h306.133q17.067 0 32.533-6.4t27.2-18.133l206.933-206.933q11.733-11.733 18.133-27.2t6.4-32.533v-476.8q0-35.2-25.067-60.267t-60.267-25.067h-512zM554.667 618.667v170.667h-298.667v-682.667h512v469.333h-170.667q-18.133 0-30.4 12.267t-12.267 30.4zM256 789.333v0z" />
<glyph unicode="&#xe90e;" glyph-name="icon_file_csv" data-tags="icon_file_csv" d="M245.333 320h96q13.867 0 22.933 9.067t9.067 22.933-9.067 22.933-22.933 9.067h-74.667v128h74.667q13.867 0 22.933 9.067t9.067 22.933-9.067 22.933-22.933 9.067h-96q-18.133 0-30.4-12.267t-12.267-30.4v-170.667q0-18.133 12.267-30.4t30.4-12.267zM443.733 320h96q18.133 0 30.4 12.267t12.267 30.4v64q0 18.133-12.267 33.6t-30.4 15.467h-64v36.267h74.667q13.867 0 22.933 9.067t9.067 22.933-9.067 22.933-22.933 9.067h-96q-18.133 0-30.4-12.267t-12.267-30.4v-64q0-18.133 12.267-32.533t30.4-14.4h64v-38.4h-74.667q-13.867 0-22.933-9.067t-9.067-22.933 9.067-22.933 22.933-9.067zM725.333 428.8l-36.267 124.8q-3.2 9.6-11.2 16t-18.667 6.4q-14.933 0-24-12.267t-4.8-27.2l56.533-194.133q3.2-9.6 11.2-16t18.667-6.4h17.067q10.667 0 18.667 6.4t11.2 16l56.533 194.133q4.267 14.933-4.8 27.2t-24 12.267q-10.667 0-18.667-6.4t-11.2-16l-36.267-124.8zM170.667 106.667q-35.2 0-60.267 25.067t-25.067 60.267v512q0 35.2 25.067 60.267t60.267 25.067h682.667q35.2 0 60.267-25.067t25.067-60.267v-512q0-35.2-25.067-60.267t-60.267-25.067h-682.667zM170.667 192h682.667v512h-682.667v-512zM170.667 192v0z" />
<glyph unicode="&#xe90f;" glyph-name="icon_file_json" data-tags="icon_file_json" d="M202.667 320h74.667q18.133 0 30.4 12.267t12.267 30.4v181.333q0 13.867-9.067 22.933t-22.933 9.067-22.933-9.067-9.067-22.933v-170.667h-42.667v26.667q0 11.733-7.467 19.2t-19.2 7.467-19.2-7.467-7.467-19.2v-37.333q0-18.133 12.267-30.4t30.4-12.267zM391.467 320h64q18.133 0 30.4 12.267t12.267 30.4v64q0 18.133-12.267 30.4t-30.4 12.267h-53.333v53.333h42.667q0-8.533 6.4-14.933t14.933-6.4h5.333q11.733 0 19.2 7.467t7.467 19.2v5.333q0 18.133-12.267 30.4t-30.4 12.267h-64q-18.133 0-30.4-12.267t-12.267-30.4v-64q0-18.133 12.267-30.4t30.4-12.267h53.333v-53.333h-42.667q0 8.533-6.4 14.933t-14.933 6.4h-5.333q-11.733 0-19.2-7.467t-7.467-19.2v-5.333q0-18.133 12.267-30.4t30.4-12.267zM579.2 384v128h42.667v-128h-42.667zM568.533 320h64q18.133 0 30.4 12.267t12.267 30.4v170.667q0 18.133-12.267 30.4t-30.4 12.267h-64q-18.133 0-30.4-12.267t-12.267-30.4v-170.667q0-18.133 12.267-30.4t30.4-12.267zM757.333 432l36.267-94.933q3.2-8.533 9.6-12.8t14.933-4.267h8.533q11.733 0 19.2 7.467t7.467 19.2v202.667q0 11.733-7.467 19.2t-19.2 7.467-19.2-7.467-7.467-19.2v-85.333l-36.267 94.933q-3.2 8.533-9.6 12.8t-14.933 4.267h-8.533q-11.733 0-19.2-7.467t-7.467-19.2v-202.667q0-11.733 7.467-19.2t19.2-7.467 19.2 7.467 7.467 19.2v85.333zM128 106.667q-35.2 0-60.267 25.067t-25.067 60.267v512q0 35.2 25.067 60.267t60.267 25.067h768q35.2 0 60.267-25.067t25.067-60.267v-512q0-35.2-25.067-60.267t-60.267-25.067h-768zM128 192h768v512h-768v-512zM128 192v0z" />
<glyph unicode="&#xe910;" glyph-name="icon_fleche_droite" data-tags="icon_fleche_droite" d="M690.133 405.333h-476.8q-18.133 0-30.4 12.267t-12.267 30.4 12.267 30.4 30.4 12.267h476.8l-209.067 209.067q-12.8 12.8-12.267 29.867t13.333 29.867q12.8 11.733 29.867 12.267t29.867-12.267l281.6-281.6q6.4-6.4 9.067-13.867t2.667-16-2.667-16-9.067-13.867l-281.6-281.6q-11.733-11.733-29.333-11.733t-30.4 11.733q-12.8 12.8-12.8 30.4t12.8 30.4l208 208z" />
<glyph unicode="&#xe911;" glyph-name="icon_fullscreen" data-tags="icon_fullscreen" d="M213.333 149.333h85.333q18.133 0 30.4-12.267t12.267-30.4-12.267-30.4-30.4-12.267h-128q-18.133 0-30.4 12.267t-12.267 30.4v128q0 18.133 12.267 30.4t30.4 12.267 30.4-12.267 12.267-30.4v-85.333zM810.667 149.333v85.333q0 18.133 12.267 30.4t30.4 12.267 30.4-12.267 12.267-30.4v-128q0-18.133-12.267-30.4t-30.4-12.267h-128q-18.133 0-30.4 12.267t-12.267 30.4 12.267 30.4 30.4 12.267h85.333zM213.333 746.667v-85.333q0-18.133-12.267-30.4t-30.4-12.267-30.4 12.267-12.267 30.4v128q0 18.133 12.267 30.4t30.4 12.267h128q18.133 0 30.4-12.267t12.267-30.4-12.267-30.4-30.4-12.267h-85.333zM810.667 746.667h-85.333q-18.133 0-30.4 12.267t-12.267 30.4 12.267 30.4 30.4 12.267h128q18.133 0 30.4-12.267t12.267-30.4v-128q0-18.133-12.267-30.4t-30.4-12.267-30.4 12.267-12.267 30.4v85.333z" />
<glyph unicode="&#xe912;" glyph-name="icon_fullscreen_exit" data-tags="icon_fullscreen_exit" d="M256 192h-85.333q-18.133 0-30.4 12.267t-12.267 30.4 12.267 30.4 30.4 12.267h128q18.133 0 30.4-12.267t12.267-30.4v-128q0-18.133-12.267-30.4t-30.4-12.267-30.4 12.267-12.267 30.4v85.333zM768 192v-85.333q0-18.133-12.267-30.4t-30.4-12.267-30.4 12.267-12.267 30.4v128q0 18.133 12.267 30.4t30.4 12.267h128q18.133 0 30.4-12.267t12.267-30.4-12.267-30.4-30.4-12.267h-85.333zM256 704v85.333q0 18.133 12.267 30.4t30.4 12.267 30.4-12.267 12.267-30.4v-128q0-18.133-12.267-30.4t-30.4-12.267h-128q-18.133 0-30.4 12.267t-12.267 30.4 12.267 30.4 30.4 12.267h85.333zM768 704h85.333q18.133 0 30.4-12.267t12.267-30.4-12.267-30.4-30.4-12.267h-128q-18.133 0-30.4 12.267t-12.267 30.4v128q0 18.133 12.267 30.4t30.4 12.267 30.4-12.267 12.267-30.4v-85.333z" />
<glyph unicode="&#xe913;" glyph-name="icon_glycogene" data-tags="icon_glycogene" d="M170.667 106.667v640q0 35.2 25.067 60.267t60.267 25.067h256q35.2 0 60.267-25.067t25.067-60.267v-298.667h42.667q35.2 0 60.267-25.067t25.067-60.267v-192q0-18.133 12.267-30.4t30.4-12.267 30.4 12.267 12.267 30.4v307.2q-9.6-5.333-20.267-6.933t-22.4-1.6q-44.8 0-75.733 30.933t-30.933 75.733q0 34.133 18.667 61.333t49.6 38.933l-67.2 67.2q-9.6 9.6-9.6 22.4t9.6 22.4q8.533 8.533 21.867 9.067t22.933-8l135.467-132.267q16-16 24-37.333t8-43.733v-405.333q0-44.8-30.933-75.733t-75.733-30.933-75.733 30.933-30.933 75.733v213.333h-64v-277.333q0-18.133-12.267-30.4t-30.4-12.267h-341.333q-18.133 0-30.4 12.267t-12.267 30.4zM256 533.333h256v213.333h-256v-213.333zM768 533.333q18.133 0 30.4 12.267t12.267 30.4-12.267 30.4-30.4 12.267-30.4-12.267-12.267-30.4 12.267-30.4 30.4-12.267zM256 149.333h256v298.667h-256v-298.667zM512 149.333v0z" />
<glyph unicode="&#xe914;" glyph-name="icon_gpx" data-tags="icon_gpx" d="M612.267 73.6l-228.267 80-198.4-76.8q-10.667-4.267-20.8-2.667t-18.667 6.933-13.333 14.4-4.8 20.8v598.4q0 13.867 8 24.533t21.867 16l198.4 67.2q6.4 2.133 13.333 3.2t14.4 1.067 14.4-1.067 13.333-3.2l228.267-80 198.4 76.8q10.667 4.267 20.8 2.667t18.667-6.933 13.333-14.4 4.8-20.8v-598.4q0-13.867-8-24.533t-21.867-16l-198.4-67.2q-6.4-2.133-13.333-3.2t-14.4-1.067-14.4 1.067-13.333 3.2zM597.333 168.533v499.2l-170.667 59.733v-499.2l170.667-59.733zM682.667 168.533l128 42.667v505.6l-128-49.067v-499.2zM213.333 179.2l128 49.067v499.2l-128-42.667v-505.6zM682.667 667.733v0zM341.333 727.467v0z" />
<glyph unicode="&#xe915;" glyph-name="icon_historique" data-tags="icon_historique" d="M512 64q-134.4 0-237.867 81.6t-134.4 208.533q-4.267 16 6.4 29.333t28.8 15.467q17.067 2.133 30.933-6.4t19.2-25.6q25.6-96 105.6-156.8t181.333-60.8q124.8 0 211.733 86.933t86.933 211.733-86.933 211.733-211.733 86.933q-73.6 0-137.6-34.133t-107.733-93.867h74.667q18.133 0 30.4-12.267t12.267-30.4-12.267-30.4-30.4-12.267h-170.667q-18.133 0-30.4 12.267t-12.267 30.4v170.667q0 18.133 12.267 30.4t30.4 12.267 30.4-12.267 12.267-30.4v-57.6q54.4 68.267 132.8 105.6t165.867 37.333q80 0 149.867-30.4t121.6-82.133 82.133-121.6 30.4-149.867-30.4-149.867-82.133-121.6-121.6-82.133-149.867-30.4zM554.667 465.067l106.667-106.667q11.733-11.733 11.733-29.867t-11.733-29.867-29.867-11.733-29.867 11.733l-119.467 119.467q-6.4 6.4-9.6 14.4t-3.2 16.533v169.6q0 18.133 12.267 30.4t30.4 12.267 30.4-12.267 12.267-30.4v-153.6z" />
<glyph unicode="&#xe916;" glyph-name="icon_hydratation" data-tags="icon_hydratation" d="M647.467 490.667h-228.267q-5.333-12.8-12.8-25.067t-18.133-20.8l30.933-338.133h228.267l30.933 338.133q-10.667 9.6-18.133 21.333t-12.8 24.533zM407.467 661.333l-11.733-46.933q7.467-8.533 13.333-18.133t10.133-20.267h228.267q4.267 10.667 10.133 20.267t13.333 18.133l-11.733 46.933h-251.733zM419.2 21.333q-33.067 0-57.6 21.867t-27.733 54.933l-33.067 369.067q-1.067 10.667 3.733 19.733t14.4 14.4q8.533 5.333 14.933 12.8t6.4 18.133q0 9.6-4.267 17.6t-12.8 13.333q-10.667 5.333-16 16.533t-2.133 22.933l27.733 112q3.2 14.933 14.933 23.467t26.667 8.533h116.267v42.667h-21.333q-18.133 0-30.4 12.267t-12.267 30.4 12.267 30.4 30.4 12.267h128q18.133 0 30.4-12.267t12.267-30.4-12.267-30.4-30.4-12.267h-21.333v-42.667h116.267q14.933 0 26.133-8.533t14.4-23.467l28.8-112q3.2-11.733-2.133-22.933t-16-16.533q-8.533-4.267-13.333-11.733t-4.8-17.067q0-11.733 5.867-19.733t15.467-13.333 14.933-14.4 4.267-19.733l-33.067-368q-3.2-33.067-27.733-55.467t-57.6-22.4h-228.267z" />
<glyph unicode="&#xe917;" glyph-name="icon_IA" data-tags="icon_IA" d="M384 362.667v170.667q0 18.133 12.267 30.4t30.4 12.267h170.667q18.133 0 30.4-12.267t12.267-30.4v-170.667q0-18.133-12.267-30.4t-30.4-12.267h-170.667q-18.133 0-30.4 12.267t-12.267 30.4zM469.333 405.333h85.333v85.333h-85.333v-85.333zM384 106.667v42.667h-85.333q-35.2 0-60.267 25.067t-25.067 60.267v85.333h-42.667q-18.133 0-30.4 12.267t-12.267 30.4 12.267 30.4 30.4 12.267h42.667v85.333h-42.667q-18.133 0-30.4 12.267t-12.267 30.4 12.267 30.4 30.4 12.267h42.667v85.333q0 35.2 25.067 60.267t60.267 25.067h85.333v42.667q0 18.133 12.267 30.4t30.4 12.267 30.4-12.267 12.267-30.4v-42.667h85.333v42.667q0 18.133 12.267 30.4t30.4 12.267 30.4-12.267 12.267-30.4v-42.667h85.333q35.2 0 60.267-25.067t25.067-60.267v-85.333h42.667q18.133 0 30.4-12.267t12.267-30.4-12.267-30.4-30.4-12.267h-42.667v-85.333h42.667q18.133 0 30.4-12.267t12.267-30.4-12.267-30.4-30.4-12.267h-42.667v-85.333q0-35.2-25.067-60.267t-60.267-25.067h-85.333v-42.667q0-18.133-12.267-30.4t-30.4-12.267-30.4 12.267-12.267 30.4v42.667h-85.333v-42.667q0-18.133-12.267-30.4t-30.4-12.267-30.4 12.267-12.267 30.4zM725.333 234.667v426.667h-426.667v-426.667h426.667z" />
<glyph unicode="&#xe918;" glyph-name="icon_IMC" data-tags="icon_IMC" d="M128 64q-18.133 0-30.4 12.267t-12.267 30.4 12.267 30.4 30.4 12.267h341.333v476.8q-27.733 9.6-48 29.867t-29.867 48h-135.467l117.333-275.2q5.333-11.733 6.4-24t-1.067-25.067q-9.6-49.067-52.8-75.733t-91.2-26.667-91.2 26.667-52.8 75.733q-2.133 12.8-1.067 25.067t6.4 24l117.333 275.2h-42.667q-18.133 0-30.4 12.267t-12.267 30.4 12.267 30.4 30.4 12.267h220.8q12.8 37.333 45.867 61.333t74.667 24 74.667-24 45.867-61.333h220.8q18.133 0 30.4-12.267t12.267-30.4-12.267-30.4-30.4-12.267h-42.667l117.333-275.2q5.333-11.733 6.4-24t-1.067-25.067q-9.6-49.067-52.8-75.733t-91.2-26.667-91.2 26.667-52.8 75.733q-2.133 12.8-1.067 25.067t6.4 24l117.333 275.2h-135.467q-9.6-27.733-29.867-48t-48-29.867v-476.8h341.333q18.133 0 30.4-12.267t12.267-30.4-12.267-30.4-30.4-12.267h-768zM709.333 405.333h160l-80 185.6-80-185.6zM154.667 405.333h160l-80 185.6-80-185.6zM512 704q18.133 0 30.4 12.267t12.267 30.4-12.267 30.4-30.4 12.267-30.4-12.267-12.267-30.4 12.267-30.4 30.4-12.267z" />
<glyph unicode="&#xe919;" glyph-name="icon_indulgence_course" data-tags="icon_indulgence_course" d="M230.4 554.667q41.6 0 78.933-14.933t68.267-43.733l407.467-389.333h25.6q18.133 0 30.4 12.267t12.267 30.4q0 8.533-1.6 18.133t-11.2 19.2l-195.2 195.2-75.733 228.267-78.933-19.2q-40.533-10.667-73.6 14.933t-33.067 67.2v89.6l-29.867 14.933-164.267-219.733q-1.067-1.067-1.067-1.6t-1.067-1.6h42.667zM230.4 469.333h-49.067q3.2-7.467 8-13.867t11.2-11.733l345.6-314.667q11.733-11.733 26.667-17.067t30.933-5.333h57.6l-342.4 327.467q-18.133 18.133-41.067 26.667t-47.467 8.533zM603.733 21.333q-32 0-60.8 11.733t-53.333 33.067l-346.667 314.667q-49.067 44.8-54.933 109.867t33.6 118.4l164.267 219.733q18.133 24.533 48.533 32.533t58.133-6.933l29.867-14.933q22.4-11.733 34.667-32t12.267-44.8v-89.6l78.933 20.267q32 8.533 61.867-8t40.533-47.467l69.333-209.067 181.333-181.333q21.333-21.333 29.333-45.867t8-52.267q0-53.333-37.333-90.667t-90.667-37.333h-206.933z" />
<glyph unicode="&#xe91a;" glyph-name="icon_licence" data-tags="icon_licence" d="M428.8 450.133q-34.133 34.133-34.133 83.2t34.133 83.2 83.2 34.133 83.2-34.133 34.133-83.2-34.133-83.2-83.2-34.133-83.2 34.133zM512 62.933l-209.067-70.4q-14.933-5.333-28.8 4.8t-13.867 26.133v279.467q-48 50.133-68.8 109.867t-20.8 120.533q0 145.067 98.133 243.2t243.2 98.133 243.2-98.133 98.133-243.2q0-60.8-20.8-120.533t-68.8-109.867v-279.467q0-16-13.867-26.133t-28.8-4.8l-209.067 70.4zM708.8 336.533q80.533 80.533 80.533 196.8t-80.533 196.8-196.8 80.533-196.8-80.533-80.533-196.8 80.533-196.8 196.8-80.533 196.8 80.533zM324.267 68.267l187.733 58.667 187.733-58.667v182.4q-42.667-30.933-91.733-44.8t-96-13.867-96 13.867-91.733 44.8v-182.4z" />
<glyph unicode="&#xe91b;" glyph-name="icon_mail" data-tags="icon_mail" d="M170.667 106.667q-35.2 0-60.267 25.067t-25.067 60.267v512q0 35.2 25.067 60.267t60.267 25.067h682.667q35.2 0 60.267-25.067t25.067-60.267v-512q0-35.2-25.067-60.267t-60.267-25.067h-682.667zM853.333 618.667l-318.933-199.467q-5.333-3.2-11.2-4.8t-11.2-1.6-11.2 1.6-11.2 4.8l-318.933 199.467v-426.667h682.667v426.667zM512 490.667l341.333 213.333h-682.667l341.333-213.333zM170.667 618.667v0z" />
<glyph unicode="&#xe91c;" glyph-name="icon_message" data-tags="icon_message" d="M256 192l-98.133-98.133q-20.267-20.267-46.4-9.067t-26.133 40v664.533q0 35.2 25.067 60.267t60.267 25.067h682.667q35.2 0 60.267-25.067t25.067-60.267v-512q0-35.2-25.067-60.267t-60.267-25.067h-597.333zM219.733 277.333h633.6v512h-682.667v-560l49.067 48zM170.667 277.333v0zM298.667 362.667h256q18.133 0 30.4 12.267t12.267 30.4-12.267 30.4-30.4 12.267h-256q-18.133 0-30.4-12.267t-12.267-30.4 12.267-30.4 30.4-12.267zM298.667 490.667h426.667q18.133 0 30.4 12.267t12.267 30.4-12.267 30.4-30.4 12.267h-426.667q-18.133 0-30.4-12.267t-12.267-30.4 12.267-30.4 30.4-12.267zM298.667 618.667h426.667q18.133 0 30.4 12.267t12.267 30.4-12.267 30.4-30.4 12.267h-426.667q-18.133 0-30.4-12.267t-12.267-30.4 12.267-30.4 30.4-12.267z" />
<glyph unicode="&#xe91d;" glyph-name="icon_metabolisme_base" data-tags="icon_metabolisme_base" d="M347.733 118.4q-16 11.733-23.467 29.867l-98.133 257.067h-140.8q-18.133 0-30.4 12.267t-12.267 30.4 12.267 30.4 30.4 12.267h170.667q13.867 0 24-7.467t15.467-20.267l88.533-232.533 196.267 517.333q7.467 18.133 23.467 29.867t36.267 11.733 36.267-11.733 23.467-29.867l98.133-257.067h140.8q18.133 0 30.4-12.267t12.267-30.4-12.267-30.4-30.4-12.267h-170.667q-13.867 0-24 7.467t-15.467 20.267l-88.533 232.533-196.267-517.333q-7.467-18.133-23.467-29.867t-36.267-11.733-36.267 11.733z" />
<glyph unicode="&#xe91e;" glyph-name="icon_miles_km" data-tags="icon_miles_km" d="M170.667 192q-35.2 0-60.267 25.067t-25.067 60.267v341.333q0 35.2 25.067 60.267t60.267 25.067h682.667q35.2 0 60.267-25.067t25.067-60.267v-341.333q0-35.2-25.067-60.267t-60.267-25.067h-682.667zM170.667 277.333h682.667v341.333h-128v-128q0-18.133-12.267-30.4t-30.4-12.267-30.4 12.267-12.267 30.4v128h-85.333v-128q0-18.133-12.267-30.4t-30.4-12.267-30.4 12.267-12.267 30.4v128h-85.333v-128q0-18.133-12.267-30.4t-30.4-12.267-30.4 12.267-12.267 30.4v128h-128v-341.333z" />
<glyph unicode="&#xe91f;" glyph-name="icon_modifier" data-tags="icon_modifier" d="M213.333 149.333h60.8l417.067 417.067-60.8 60.8-417.067-417.067v-60.8zM170.667 64q-18.133 0-30.4 12.267t-12.267 30.4v103.467q0 17.067 6.4 32.533t18.133 27.2l538.667 537.6q12.8 11.733 28.267 18.133t32.533 6.4 33.067-6.4 27.733-19.2l58.667-59.733q12.8-11.733 18.667-27.733t5.867-32q0-17.067-5.867-32.533t-18.667-28.267l-537.6-537.6q-11.733-11.733-27.2-18.133t-32.533-6.4h-103.467zM810.667 686.933v0zM660.267 596.267l-29.867 30.933 60.8-60.8-30.933 29.867z" />
<glyph unicode="&#xe920;" glyph-name="icon_niveau_course" data-tags="icon_niveau_course" d="M554.667 344.533l-48 52.267-13.867-70.4q-3.2-18.133-17.6-27.733t-32.533-6.4l-98.133 20.267q-8.533 2.133-13.333 9.067t-2.667 15.467 9.6 13.867 16 3.2l97.067-20.267 41.6 209.067-66.133-24.533v-49.067q0-8.533-6.4-14.933t-14.933-6.4-14.933 6.4-6.4 14.933v49.067q0 13.867 7.467 24.533t20.267 16l112 40.533q16 5.333 31.467-1.067t22.933-21.333q19.2-39.467 42.133-57.6t41.067-24.533q8.533-3.2 14.933-10.133t6.4-15.467-6.4-14.4-14.933-3.733q-23.467 5.333-51.2 22.933t-51.2 48.533l-18.133-100.267 44.8-48q5.333-5.333 8.533-13.333t3.2-16.533v-131.2q0-8.533-6.4-14.933t-14.933-6.4-14.933 6.4-6.4 14.933v131.2zM576 618.667q-18.133 0-30.4 12.267t-12.267 30.4 12.267 30.4 30.4 12.267 30.4-12.267 12.267-30.4-12.267-30.4-30.4-12.267zM512 21.333q-88.533 0-166.4 33.6t-135.467 91.2-91.2 135.467-33.6 166.4 33.6 166.4 91.2 135.467 135.467 91.2 166.4 33.6 166.4-33.6 135.467-91.2 91.2-135.467 33.6-166.4-33.6-166.4-91.2-135.467-135.467-91.2-166.4-33.6zM512 106.667q142.933 0 242.133 99.2t99.2 242.133-99.2 242.133-242.133 99.2-242.133-99.2-99.2-242.133 99.2-242.133 242.133-99.2z" />
<glyph unicode="&#xe921;" glyph-name="icon_outils" data-tags="icon_outils" d="M384 320q-106.667 0-181.333 74.667t-74.667 181.333q0 21.333 3.2 42.667t11.733 40.533q5.333 10.667 13.333 16t17.6 7.467 19.733-0.533 18.667-11.2l112-112 76.8 76.8-112 112q-8.533 8.533-11.2 18.667t-0.533 19.733 7.467 17.6 16 13.333q19.2 8.533 40.533 11.733t42.667 3.2q106.667 0 181.333-74.667t74.667-181.333q0-24.533-4.267-46.4t-12.8-43.2l215.467-213.333q30.933-30.933 30.933-75.733t-30.933-75.733-75.733-30.933-75.733 32l-213.333 214.4q-21.333-8.533-43.2-12.8t-46.4-4.267zM384 405.333q27.733 0 55.467 8.533t50.133 26.667l259.2-259.2q5.333-5.333 14.4-4.8t14.4 5.867 5.333 14.4-5.333 14.4l-259.2 258.133q19.2 21.333 27.733 49.6t8.533 57.067q0 64-41.067 111.467t-101.867 57.067l78.933-78.933q12.8-12.8 12.8-29.867t-12.8-29.867l-136.533-136.533q-12.8-12.8-29.867-12.8t-29.867 12.8l-78.933 78.933q9.6-60.8 57.067-101.867t111.467-41.067z" />
<glyph unicode="&#xe922;" glyph-name="icon_parametres" data-tags="icon_parametres" d="M461.867 21.333q-28.8 0-49.6 19.2t-25.067 46.933l-9.6 70.4q-13.867 5.333-26.133 12.8t-24 16l-66.133-27.733q-26.667-11.733-53.333-2.133t-41.6 34.133l-50.133 87.467q-14.933 24.533-8.533 52.267t28.8 45.867l56.533 42.667q-1.067 7.467-1.067 14.4v28.8q0 6.933 1.067 14.4l-56.533 42.667q-22.4 18.133-28.8 45.867t8.533 52.267l50.133 87.467q14.933 24.533 41.6 34.133t53.333-2.133l66.133-27.733q11.733 8.533 24.533 16t25.6 12.8l9.6 70.4q4.267 27.733 25.067 46.933t49.6 19.2h100.267q28.8 0 49.6-19.2t25.067-46.933l9.6-70.4q13.867-5.333 26.133-12.8t24-16l66.133 27.733q26.667 11.733 53.333 2.133t41.6-34.133l50.133-87.467q14.933-24.533 8.533-52.267t-28.8-45.867l-56.533-42.667q1.067-7.467 1.067-14.4v-28.8q0-6.933-2.133-14.4l56.533-42.667q22.4-18.133 28.8-45.867t-8.533-52.267l-51.2-87.467q-14.933-24.533-41.6-34.133t-53.333 2.133l-64 27.733q-11.733-8.533-24.533-16t-25.6-12.8l-9.6-70.4q-4.267-27.733-25.067-46.933t-49.6-19.2h-100.267zM469.333 106.667h84.267l14.933 113.067q33.067 8.533 61.333 25.067t51.733 40l105.6-43.733 41.6 72.533-91.733 69.333q5.333 14.933 7.467 31.467t2.133 33.6-2.133 33.6-7.467 31.467l91.733 69.333-41.6 72.533-105.6-44.8q-23.467 24.533-51.733 41.067t-61.333 25.067l-13.867 113.067h-84.267l-14.933-113.067q-33.067-8.533-61.333-25.067t-51.733-40l-105.6 43.733-41.6-72.533 91.733-68.267q-5.333-16-7.467-32t-2.133-34.133q0-17.067 2.133-33.067t7.467-32l-91.733-69.333 41.6-72.533 105.6 44.8q23.467-24.533 51.733-41.067t61.333-25.067l13.867-113.067zM514.133 298.667q61.867 0 105.6 43.733t43.733 105.6-43.733 105.6-105.6 43.733q-62.933 0-106.133-43.733t-43.2-105.6 43.2-105.6 106.133-43.733z" />
<glyph unicode="&#xe923;" glyph-name="icon_partager" data-tags="icon_partager" d="M725.333 21.333q-53.333 0-90.667 37.333t-37.333 90.667q0 6.4 3.2 29.867l-299.733 174.933q-17.067-16-39.467-25.067t-48-9.067q-53.333 0-90.667 37.333t-37.333 90.667 37.333 90.667 90.667 37.333q25.6 0 48-9.067t39.467-25.067l299.733 174.933q-2.133 7.467-2.667 14.4t-0.533 15.467q0 53.333 37.333 90.667t90.667 37.333 90.667-37.333 37.333-90.667-37.333-90.667-90.667-37.333q-25.6 0-48 9.067t-39.467 25.067l-299.733-174.933q2.133-7.467 2.667-14.4t0.533-15.467-0.533-15.467-2.667-14.4l299.733-174.933q17.067 16 39.467 25.067t48 9.067q53.333 0 90.667-37.333t37.333-90.667-37.333-90.667-90.667-37.333zM725.333 106.667q18.133 0 30.4 12.267t12.267 30.4-12.267 30.4-30.4 12.267-30.4-12.267-12.267-30.4 12.267-30.4 30.4-12.267zM213.333 405.333q18.133 0 30.4 12.267t12.267 30.4-12.267 30.4-30.4 12.267-30.4-12.267-12.267-30.4 12.267-30.4 30.4-12.267zM725.333 704q18.133 0 30.4 12.267t12.267 30.4-12.267 30.4-30.4 12.267-30.4-12.267-12.267-30.4 12.267-30.4 30.4-12.267z" />
<glyph unicode="&#xe924;" glyph-name="icon_pause" data-tags="icon_pause" d="M640 149.333q-35.2 0-60.267 25.067t-25.067 60.267v426.667q0 35.2 25.067 60.267t60.267 25.067h85.333q35.2 0 60.267-25.067t25.067-60.267v-426.667q0-35.2-25.067-60.267t-60.267-25.067h-85.333zM298.667 149.333q-35.2 0-60.267 25.067t-25.067 60.267v426.667q0 35.2 25.067 60.267t60.267 25.067h85.333q35.2 0 60.267-25.067t25.067-60.267v-426.667q0-35.2-25.067-60.267t-60.267-25.067h-85.333zM640 234.667h85.333v426.667h-85.333v-426.667zM298.667 234.667h85.333v426.667h-85.333v-426.667zM298.667 661.333v0zM640 661.333v0z" />
<glyph unicode="&#xe925;" glyph-name="icon_plus" data-tags="icon_plus" d="M512 106.667q-35.2 0-60.267 25.067t-25.067 60.267 25.067 60.267 60.267 25.067 60.267-25.067 25.067-60.267-25.067-60.267-60.267-25.067zM512 362.667q-35.2 0-60.267 25.067t-25.067 60.267 25.067 60.267 60.267 25.067 60.267-25.067 25.067-60.267-25.067-60.267-60.267-25.067zM512 618.667q-35.2 0-60.267 25.067t-25.067 60.267 25.067 60.267 60.267 25.067 60.267-25.067 25.067-60.267-25.067-60.267-60.267-25.067z" />
<glyph unicode="&#xe926;" glyph-name="icon_plus_horizontal" data-tags="icon_plus_horizontal" d="M256 362.667q-35.2 0-60.267 25.067t-25.067 60.267 25.067 60.267 60.267 25.067 60.267-25.067 25.067-60.267-25.067-60.267-60.267-25.067zM512 362.667q-35.2 0-60.267 25.067t-25.067 60.267 25.067 60.267 60.267 25.067 60.267-25.067 25.067-60.267-25.067-60.267-60.267-25.067zM768 362.667q-35.2 0-60.267 25.067t-25.067 60.267 25.067 60.267 60.267 25.067 60.267-25.067 25.067-60.267-25.067-60.267-60.267-25.067z" />
<glyph unicode="&#xe927;" glyph-name="icon_profil" data-tags="icon_profil" d="M249.6 230.4q54.4 41.6 121.6 65.6t140.8 24 140.8-24 121.6-65.6q37.333 43.733 58.133 99.2t20.8 118.4q0 141.867-99.733 241.6t-241.6 99.733-241.6-99.733-99.733-241.6q0-62.933 20.8-118.4t58.133-99.2zM405.867 448.533q-43.2 43.2-43.2 106.133t43.2 106.133 106.133 43.2 106.133-43.2 43.2-106.133-43.2-106.133-106.133-43.2-106.133 43.2zM512 21.333q-88.533 0-166.4 33.6t-135.467 91.2-91.2 135.467-33.6 166.4 33.6 166.4 91.2 135.467 135.467 91.2 166.4 33.6 166.4-33.6 135.467-91.2 91.2-135.467 33.6-166.4-33.6-166.4-91.2-135.467-135.467-91.2-166.4-33.6zM618.667 123.2q50.133 16.533 91.733 47.467-41.6 30.933-91.733 47.467t-106.667 16.533-106.667-16.533-91.733-47.467q41.6-30.933 91.733-47.467t106.667-16.533 106.667 16.533zM557.867 508.8q18.133 18.133 18.133 45.867t-18.133 45.867-45.867 18.133-45.867-18.133-18.133-45.867 18.133-45.867 45.867-18.133 45.867 18.133z" />
<glyph unicode="&#xe928;" glyph-name="icon_progression" data-tags="icon_progression" d="M450.133 183.467l220.8 264.533h-170.667l30.933 242.133-197.333-284.8h148.267l-32-221.867zM384 320h-132.267q-25.6 0-37.867 22.933t2.667 44.267l318.933 458.667q10.667 14.933 27.733 20.8t35.2-0.533 26.667-22.4 6.4-34.133l-34.133-276.267h165.333q27.733 0 38.933-24.533t-6.933-45.867l-350.933-420.267q-11.733-13.867-28.8-18.133t-33.067 3.2-25.067 22.933-6.933 33.6l34.133 235.733z" />
<glyph unicode="&#xe929;" glyph-name="icon_proteines" data-tags="icon_proteines" d="M682.667 21.333q-71.467 0-108.267 24t-62.4 50.667q-20.267 21.333-38.933 37.333t-47.467 16q-48 0-106.667 16.533t-110.4 54.4-86.933 98.667-36.267 149.333q-2.133 178.133 88 292.267t252.267 114.133q75.733 0 128-21.867t90.133-54.933 64-73.067 49.6-77.333q12.8-21.333 25.6-38.933t27.733-32.533q64-64 96-112t32-145.067q0-128-79.467-212.8t-176.533-84.8zM682.667 106.667q60.8 0 115.733 60.267t54.933 152q0 70.4-20.8 103.467t-81.6 93.867q-22.4 21.333-40 47.467t-35.733 53.867q-43.733 69.333-92.8 120.533t-156.8 51.2q-137.6 0-197.333-98.667t-57.6-221.333q1.067-71.467 30.933-117.333t70.933-72 83.733-35.733 69.333-9.6q54.4 0 87.467-26.133t54.4-48.533q23.467-24.533 45.333-38.933t69.867-14.4zM512 298.667q61.867 0 105.6 43.733t43.733 105.6-43.733 105.6-105.6 43.733-105.6-43.733-43.733-105.6 43.733-105.6 105.6-43.733z" />
<glyph unicode="&#xe92a;" glyph-name="icon_recuperation" data-tags="icon_recuperation" d="M197.333 468.267l-106.667 106.667q-9.6 9.6-9.6 22.4t9.6 22.4l106.667 105.6q9.6 9.6 22.4 9.6t22.4-9.6l105.6-105.6q9.6-9.6 9.6-22.4t-9.6-22.4l-105.6-106.667q-9.6-9.6-22.4-9.6t-22.4 9.6zM429.867 21.333q-13.867 0-22.933 9.067t-9.067 22.933v195.2q-59.733 5.333-118.4 12.267t-117.333 19.733q-13.867 3.2-21.333 14.4t-4.267 25.067 16 20.267 27.733 3.2q82.133-17.067 165.333-24t166.4-6.933 166.4 6.933 165.333 24q14.933 3.2 28.267-3.2t16.533-20.267-5.867-25.6-24-14.933q-57.6-11.733-115.733-18.667t-116.8-12.267v-195.2q0-13.867-9.067-22.933t-22.933-9.067h-164.267zM219.733 534.4l61.867 62.933-61.867 61.867-62.933-61.867 62.933-62.933zM428.8 716.8q-34.133 34.133-34.133 83.2t34.133 83.2 83.2 34.133 83.2-34.133 34.133-83.2-34.133-83.2-83.2-34.133-83.2 34.133zM457.067 400.533q-22.933 22.933-22.933 54.933t22.933 54.933 54.933 22.933 54.933-22.933 22.933-54.933-22.933-54.933-54.933-22.933-54.933 22.933zM549.867 762.133q15.467 15.467 15.467 37.867t-15.467 37.867-37.867 15.467-37.867-15.467-15.467-37.867 15.467-37.867 37.867-15.467 37.867 15.467zM734.933 474.667l-48 85.333q-4.267 7.467-4.267 16t4.267 16l48 85.333q4.267 7.467 12.267 11.733t16.533 4.267h94.933q8.533 0 16.533-4.267t12.267-11.733l48-85.333q4.267-7.467 4.267-16t-4.267-16l-48-85.333q-4.267-7.467-12.267-11.733t-16.533-4.267h-94.933q-8.533 0-16.533 4.267t-12.267 11.733zM781.867 522.667h58.667l29.867 53.333-29.867 53.333h-58.667l-29.867-53.333 29.867-53.333z" />
<glyph unicode="&#xe92b;" glyph-name="icon_statistiques" data-tags="icon_statistiques" d="M192.533 128.597q-21.867 21.941-21.867 52.736v192q0 30.805 21.963 52.736t52.8 21.931 52.704-21.931 21.867-52.736v-192q0-30.795-21.963-52.736-21.963-21.931-52.8-21.931t-52.704 21.931zM511.904 106.667q-30.837 0-52.704 21.931-21.867 21.941-21.867 52.736v533.333q0 30.805 21.963 52.736t52.8 21.931 52.704-21.931 21.867-52.736v-533.333q0-30.795-21.963-52.736-21.963-21.931-52.8-21.931zM725.867 128.597q-21.867 21.941-21.867 52.736v320q0 30.805 21.963 52.736t52.8 21.931 52.704-21.931 21.867-52.736v-320q0-30.795-21.963-52.736-21.963-21.931-52.8-21.931t-52.704 21.931z" />
<glyph unicode="&#xe92c;" glyph-name="icon_strategie_allure" data-tags="icon_strategie_allure" d="M477.867 285.867q36.267-14.933 69.867-2.667t44.267 49.6q23.467 78.933 42.667 155.733t36.267 154.667q4.267 19.2-13.333 27.2t-29.333-6.933q-49.067-64-96.533-127.467t-94.4-130.667q-22.4-32-6.933-68.267t47.467-51.2zM218.667 106.667q-22.4 0-42.667 10.133t-32 30.4q-27.733 48-42.667 101.867t-14.933 113.6q0 100.267 42.133 184.533t113.6 144q60.8 50.133 134.933 75.733t152 22.4q17.067-1.067 25.6-14.933t6.4-30.933-15.467-28.267-30.4-11.2q-58.667 1.067-115.2-19.2t-101.333-57.6q-57.6-48-92.267-116.267t-34.667-148.267q0-44.8 12.267-88.533t34.667-82.133h587.733q24.533 40.533 35.733 83.733t11.2 86.933q0 62.933-24 123.733t-64.533 105.6q-12.8 14.933-9.6 30.933t14.933 26.667 29.867 11.2 34.133-17.6q54.4-58.667 79.467-132.8t25.067-147.733q0-56.533-13.867-111.467t-43.733-104q-10.667-20.267-31.467-30.4t-43.2-10.133h-587.733z" />
<glyph unicode="&#xe92d;" glyph-name="icon_supprimer" data-tags="icon_supprimer" d="M298.667 64q-35.2 0-60.267 25.067t-25.067 60.267v554.667q-18.133 0-30.4 12.267t-12.267 30.4 12.267 30.4 30.4 12.267h170.667q0 18.133 12.267 30.4t30.4 12.267h170.667q18.133 0 30.4-12.267t12.267-30.4h170.667q18.133 0 30.4-12.267t12.267-30.4-12.267-30.4-30.4-12.267v-554.667q0-35.2-25.067-60.267t-60.267-25.067h-426.667zM725.333 704h-426.667v-554.667h426.667v554.667zM426.667 234.667q18.133 0 30.4 12.267t12.267 30.4v298.667q0 18.133-12.267 30.4t-30.4 12.267-30.4-12.267-12.267-30.4v-298.667q0-18.133 12.267-30.4t30.4-12.267zM597.333 234.667q18.133 0 30.4 12.267t12.267 30.4v298.667q0 18.133-12.267 30.4t-30.4 12.267-30.4-12.267-12.267-30.4v-298.667q0-18.133 12.267-30.4t30.4-12.267zM298.667 704v0z" />
<glyph unicode="&#xe92e;" glyph-name="icon_telechargement" data-tags="icon_telechargement" d="M496 298.133q-7.467 2.667-13.867 9.067l-153.6 153.6q-12.8 12.8-12.267 29.867t12.267 29.867q12.8 12.8 30.4 13.333t30.4-12.267l80-80v305.067q0 18.133 12.267 30.4t30.4 12.267 30.4-12.267 12.267-30.4v-305.067l80 80q12.8 12.8 30.4 12.267t30.4-13.333q11.733-12.8 12.267-29.867t-12.267-29.867l-153.6-153.6q-6.4-6.4-13.867-9.067t-16-2.667-16 2.667zM256 106.667q-35.2 0-60.267 25.067t-25.067 60.267v85.333q0 18.133 12.267 30.4t30.4 12.267 30.4-12.267 12.267-30.4v-85.333h512v85.333q0 18.133 12.267 30.4t30.4 12.267 30.4-12.267 12.267-30.4v-85.333q0-35.2-25.067-60.267t-60.267-25.067h-512z" />
<glyph unicode="&#xe92f;" glyph-name="icon_temps_recup" data-tags="icon_temps_recup" d="M512 490.667q70.4 0 120.533 50.133t50.133 120.533v128h-341.333v-128q0-70.4 50.133-120.533t120.533-50.133zM213.333 21.333q-18.133 0-30.4 12.267t-12.267 30.4 12.267 30.4 30.4 12.267h42.667v128q0 65.067 30.4 122.133t84.8 91.2q-54.4 34.133-84.8 91.2t-30.4 122.133v128h-42.667q-18.133 0-30.4 12.267t-12.267 30.4 12.267 30.4 30.4 12.267h597.333q18.133 0 30.4-12.267t12.267-30.4-12.267-30.4-30.4-12.267h-42.667v-128q0-65.067-30.4-122.133t-84.8-91.2q54.4-34.133 84.8-91.2t30.4-122.133v-128h42.667q18.133 0 30.4-12.267t12.267-30.4-12.267-30.4-30.4-12.267h-597.333z" />
<glyph unicode="&#xe930;" glyph-name="icon_to_day" data-tags="icon_to_day" d="M499.2 51.2q-20.267-20.267-46.4-9.067t-26.133 40v280.533h-280.533q-28.8 0-40 26.133t9.067 46.4l329.6 329.6q11.733 11.733 27.2 18.133t32.533 6.4h263.467q35.2 0 60.267-25.067t25.067-60.267v-263.467q0-17.067-6.4-32.533t-18.133-27.2l-329.6-329.6zM682.667 576v-220.8l85.333 85.333v263.467h-263.467l-85.333-85.333h220.8q18.133 0 30.4-12.267t12.267-30.4zM512 405.333v-220.8l85.333 85.333v263.467h-263.467l-85.333-85.333h220.8q18.133 0 30.4-12.267t12.267-30.4z" />
<glyph unicode="&#xe931;" glyph-name="icon_zones_cardiaques" data-tags="icon_zones_cardiaques" d="M512 64q-19.2 0-36.8 6.933t-31.467 20.8l-285.867 286.933q-37.333 37.333-54.933 85.333t-17.6 100.267q0 109.867 71.467 188.8t178.133 78.933q51.2 0 96.533-20.267t80.533-56.533q34.133 36.267 79.467 56.533t96.533 20.267q106.667 0 178.667-78.933t72-187.733q0-52.267-18.133-100.267t-54.4-85.333l-286.933-288q-13.867-13.867-30.933-20.8t-36.267-6.933zM554.667 618.667q10.667 0 20.267-5.333t14.933-13.867l72.533-108.8h177.067q7.467 18.133 11.2 36.8t3.733 37.867q-2.133 73.6-49.067 126.4t-117.333 52.8q-33.067 0-63.467-12.8t-52.8-37.333l-28.8-30.933q-5.333-6.4-13.867-10.133t-17.067-3.733-17.067 3.733-14.933 10.133l-28.8 30.933q-22.4 24.533-52.267 38.4t-64 13.867q-70.4 0-117.333-53.867t-46.933-127.467q0-19.2 3.2-37.867t10.667-36.8h199.467q10.667 0 20.267-5.333t14.933-13.867l37.333-55.467 57.6 172.8q4.267 12.8 15.467 21.333t25.067 8.533zM567.467 480l-57.6-172.8q-4.267-12.8-16-21.333t-25.6-8.533q-10.667 0-20.267 5.333t-14.933 13.867l-72.533 108.8h-108.8l252.8-252.8q2.133-2.133 3.733-2.667t3.733-0.533 3.733 0.533 3.733 2.667l251.733 252.8h-131.2q-10.667 0-20.267 5.333t-16 13.867l-36.267 55.467z" />
</font>
</defs>
</svg>
